<svg xmlns="http://www.w3.org/2000/svg" width="301" height="277" viewBox="0 0 301 277" version="1.1"><path d="M 211 102.313 C 211 102.485, 212.463 103.948, 214.250 105.563 L 217.500 108.500 214.563 105.250 C 211.825 102.221, 211 101.540, 211 102.313" stroke="none" fill="#123f4a" fill-rule="evenodd"/><path d="M 155.861 6.217 C 154.183 8.023, 151.503 10.850, 149.904 12.500 C 148.306 14.150, 146.999 15.909, 146.999 16.410 C 147 16.910, 144.514 20.060, 141.476 23.410 C 132.892 32.873, 132.545 33.276, 129.693 37.088 C 128.217 39.062, 127.345 41.012, 127.755 41.421 C 128.165 41.831, 127.825 42.017, 127 41.833 L 125.500 41.500 125.775 42.824 C 125.926 43.553, 125.649 43.901, 125.158 43.598 C 124.668 43.295, 123.462 43.937, 122.479 45.024 C 121.495 46.111, 120.950 47, 121.268 47 C 121.586 47, 120.643 48.247, 119.173 49.771 C 117.703 51.294, 114.700 54.749, 112.500 57.448 C 110.300 60.146, 107.938 62.917, 107.250 63.606 C 106.563 64.294, 106 65.106, 106 65.410 C 106 65.715, 104.537 67.499, 102.750 69.375 C 100.963 71.251, 98.643 73.847, 97.595 75.143 C 96.547 76.439, 94.072 79.344, 92.095 81.597 C 90.118 83.850, 87.022 87.450, 85.215 89.597 C 83.408 91.744, 80.152 95.525, 77.979 98 C 75.806 100.475, 74.022 102.793, 74.014 103.150 C 74.006 103.508, 72.537 105.346, 70.750 107.236 C 68.963 109.126, 65.025 113.728, 62 117.464 C 58.975 121.200, 52.084 129.370, 46.687 135.621 L 36.873 146.986 37.591 148.147 L 38.309 149.309 37.288 148.678 C 36.727 148.331, 35.462 148.937, 34.479 150.024 C 33.495 151.111, 33.097 152.014, 33.595 152.030 C 34.093 152.047, 33.739 152.505, 32.809 153.047 C 31.879 153.590, 28.991 156.839, 26.391 160.267 C 23.791 163.695, 20.645 167.625, 19.398 169 C 13.249 175.783, 3.003 188.126, 2.062 189.885 L 1 191.869 1 233.926 L 1 275.984 119.046 276.242 L 237.091 276.500 236.488 274 C 236.156 272.625, 234.786 268.723, 233.442 265.329 C 232.099 261.936, 230.995 258.561, 230.989 257.829 C 230.975 256.178, 250.241 237.833, 250.974 238.799 C 251.954 240.091, 260.167 244.166, 260.706 243.627 C 260.999 243.335, 261.892 243.749, 262.690 244.548 C 263.489 245.346, 265.170 246, 266.425 246 L 268.707 246 273.353 239.012 C 275.909 235.169, 278 231.671, 278 231.240 C 278 230.809, 279.379 228.782, 281.065 226.737 L 284.130 223.019 283.410 221.855 L 282.691 220.691 283.845 221.405 L 285 222.118 285 220.839 C 285 220.136, 283.742 218.422, 282.206 217.030 C 280.669 215.639, 277.709 212.357, 275.629 209.738 L 271.847 204.977 273.340 200.238 C 275.495 193.401, 277.165 185.567, 276.808 183.966 L 276.500 182.584 284 181.355 C 288.125 180.679, 293.120 180.097, 295.100 180.063 L 298.701 180 299.350 170.846 C 299.708 165.812, 300 159.117, 300 155.969 L 300 150.245 298.629 149.107 C 297.875 148.481, 293.712 147.047, 289.379 145.920 C 285.045 144.794, 281.009 143.338, 280.409 142.686 C 279.501 141.698, 275.844 128.901, 274.355 121.500 L 273.953 119.500 279.435 115.500 C 282.449 113.300, 284.935 111.162, 284.958 110.750 C 284.981 110.338, 285.563 109.990, 286.250 109.978 C 286.938 109.966, 288.577 109.128, 289.893 108.116 L 292.286 106.276 287.785 97.352 C 282.393 86.661, 280.899 84.012, 279.250 82.217 C 278.563 81.469, 278 80.214, 278 79.429 C 278 77.549, 278.073 77.533, 270.795 80.989 C 267.333 82.633, 262.383 84.607, 259.796 85.377 L 255.092 86.777 254.796 85.957 C 254.426 84.934, 248.743 77.990, 243.629 72.312 L 239.758 68.014 241.499 63.257 C 242.457 60.641, 243.299 57.263, 243.370 55.750 C 243.442 54.237, 243.785 53, 244.133 53 C 244.683 53, 246.070 49.821, 246.391 47.825 C 246.512 47.078, 239.346 42, 238.171 42 C 237.764 42, 234.184 39.756, 230.216 37.014 C 223.566 32.418, 222.508 32.029, 222.906 34.324 C 222.985 34.778, 222.615 34.880, 222.085 34.552 C 221.210 34.012, 213.966 39.452, 213.167 41.250 C 212.983 41.662, 212.401 42, 211.873 42 C 211.345 42, 209.728 43.099, 208.279 44.442 L 205.646 46.884 202.573 44.736 C 197.725 41.349, 193.742 37.632, 175.758 19.717 L 158.911 2.935 155.861 6.217 M 156.503 45.835 C 155.404 46.059, 153.604 47.260, 152.503 48.505 C 137.326 65.656, 126.944 76.896, 120.752 82.879 C 118.690 84.870, 117.003 86.989, 117.002 87.586 C 117.001 88.183, 115.313 90.251, 113.250 92.182 C 111.188 94.112, 107.734 97.764, 105.575 100.297 L 101.651 104.902 100.671 104.297 L 99.691 103.691 100.467 104.946 L 101.243 106.202 99.159 108.351 C 93.587 114.096, 72.451 138.289, 72.100 139.323 C 71.880 139.970, 71.328 140.745, 70.874 141.044 L 70.047 141.589 69.774 200.295 L 69.500 259 75.250 259 C 78.412 259, 81.338 259.006, 81.750 259.013 C 82.162 259.020, 82.612 256.658, 82.749 253.763 C 82.886 250.868, 83.244 247.037, 83.545 245.250 L 84.091 242 86.025 242 C 88.938 242, 103.023 239.220, 116.500 235.985 C 142.488 229.748, 147.670 228.681, 152.132 228.649 L 156.764 228.615 159.347 230.308 C 160.767 231.238, 162.583 232, 163.381 232 C 164.180 232, 164.983 232.337, 165.167 232.750 C 165.501 233.503, 177.663 239.190, 183.759 241.443 C 185.552 242.106, 186.799 242.868, 186.531 243.136 C 186.263 243.404, 188.059 243.156, 190.522 242.584 C 192.985 242.013, 195 241.198, 195 240.773 C 195 240.348, 195.603 240, 196.339 240 C 197.659 240, 201.028 237.705, 209.293 231.177 C 214.142 227.347, 226 216.085, 226 215.310 C 226 215.023, 227.300 213.146, 228.889 211.140 C 230.478 209.134, 233.590 203.894, 235.805 199.496 L 239.832 191.500 241.916 182.863 L 244 174.227 244.001 160.863 C 244.002 148.709, 242.303 130.363, 241.272 131.395 C 240.858 131.808, 231.789 122.800, 201.197 91.593 L 185.893 75.982 186.601 74.836 L 187.309 73.691 186.342 74.289 L 185.375 74.886 173.937 63.115 C 162.544 51.389, 159.603 48.115, 158.880 46.355 C 158.671 45.845, 157.601 45.611, 156.503 45.835 M 152.655 66.829 C 151.745 67.835, 151 68.915, 151 69.229 C 151 69.543, 149.366 71.533, 147.370 73.650 C 142.005 79.339, 139.620 81.980, 124.475 99 C 108.039 117.470, 91.674 135.225, 87.448 139.169 L 84.396 142.017 84.997 147.474 C 85.328 150.475, 85.834 153.167, 86.122 153.456 C 86.747 154.081, 106.125 144.284, 126.500 133.041 C 130.900 130.614, 138.735 126.461, 143.910 123.814 L 153.321 119 156.160 119 L 159 119 159 120.059 C 159 120.641, 165.732 127.841, 173.960 136.059 C 182.189 144.276, 188.732 151, 188.502 151 C 188.271 151, 193.679 156.625, 200.520 163.500 C 207.360 170.375, 213.347 176, 213.824 176 L 214.693 176 215.388 156.463 L 216.083 136.925 213.965 133.951 L 211.847 130.976 210.769 131.643 L 209.691 132.309 210.391 131.176 L 211.092 130.042 207.796 126.437 C 200.164 118.089, 199.163 117.167, 198.439 117.817 C 198.021 118.193, 198.020 117.911, 198.435 117.191 L 199.191 115.881 193.846 110.087 C 186.796 102.445, 184 99.012, 184 97.998 C 184 97.541, 183.662 97.017, 183.250 96.833 C 182.838 96.650, 180.260 93.800, 177.522 90.500 C 174.785 87.200, 172.279 84.275, 171.954 84 C 171.630 83.725, 169.578 81.250, 167.395 78.500 C 162.071 71.793, 155.829 65, 154.991 65 C 154.616 65, 153.565 65.823, 152.655 66.829 M 132.847 144.780 C 120.937 150.676, 106.537 157.725, 100.847 160.445 C 95.156 163.165, 89.905 165.978, 89.179 166.695 C 88.452 167.413, 87.214 168, 86.429 168 L 85 168 85 179.500 C 85 185.825, 85.338 190.997, 85.750 190.993 C 86.750 190.983, 104.450 184.294, 109.500 182.017 C 111.700 181.025, 119.575 177.944, 127 175.170 C 134.425 172.397, 142.525 169.208, 145 168.086 C 149.793 165.911, 155 165.346, 155 167 C 155 167.550, 155.620 168, 156.378 168 C 157.135 168, 158.311 168.670, 158.991 169.489 C 159.671 170.308, 160.695 170.688, 161.268 170.334 L 162.309 169.691 161.623 170.802 L 160.936 171.912 163.718 173.689 C 165.248 174.666, 170.325 178.555, 175 182.331 C 179.675 186.106, 184.175 189.465, 185 189.793 C 185.825 190.122, 187.850 191.651, 189.500 193.191 C 191.150 194.731, 192.954 195.993, 193.509 195.995 C 194.065 195.998, 195.081 196.900, 195.768 198 C 196.455 199.100, 197.633 200, 198.386 200 C 199.139 200, 200.311 200.670, 200.991 201.489 C 201.671 202.308, 202.695 202.688, 203.268 202.334 L 204.309 201.691 203.664 202.734 L 203.019 203.777 206.760 206.598 C 208.817 208.149, 211.003 210.081, 211.618 210.890 L 212.737 212.360 213.868 210.246 L 215 208.131 214.996 199.816 L 214.993 191.500 208.817 186.509 C 205.420 183.763, 194.059 172.790, 183.571 162.122 C 173.082 151.455, 162.570 140.764, 160.212 138.364 C 157.853 135.964, 155.603 134.014, 155.212 134.030 C 154.820 134.047, 144.756 138.884, 132.847 144.780 M 147.841 181.578 C 145.295 182.872, 135.177 186.904, 125.356 190.539 C 115.535 194.173, 105.266 198.068, 102.536 199.193 C 99.806 200.319, 97.106 201.340, 96.536 201.464 C 92.433 202.350, 90 203.356, 90 204.167 C 90 204.690, 89.586 204.862, 89.081 204.550 C 88.575 204.237, 87.450 204.693, 86.581 205.562 L 85 207.143 85 218.188 L 85 229.233 87.250 228.716 C 88.487 228.432, 96.558 226.714, 105.185 224.898 C 113.811 223.083, 120.650 221.243, 120.383 220.810 C 120.115 220.377, 120.528 220.265, 121.301 220.562 C 122.074 220.858, 127.834 219.896, 134.103 218.423 C 140.371 216.950, 147.298 215.392, 149.496 214.962 L 153.492 214.179 156.496 215.583 C 158.148 216.355, 161.300 218.096, 163.500 219.450 C 165.700 220.805, 168.250 221.933, 169.167 221.957 C 170.083 221.980, 170.983 222.338, 171.167 222.750 C 171.350 223.162, 174.875 225.272, 179 227.439 C 183.125 229.605, 187.110 231.983, 187.855 232.723 L 189.211 234.068 191.355 233.433 C 192.535 233.084, 194 232.168, 194.610 231.399 C 195.221 230.630, 196.041 230, 196.432 230 C 196.824 230, 199.366 227.896, 202.082 225.325 L 207.020 220.650 204.836 218.325 C 202.668 216.017, 200.315 215.083, 201.500 217 C 201.840 217.550, 201.855 218, 201.534 218 C 201.213 218, 200.505 216.829, 199.961 215.398 L 198.972 212.797 197.434 213.387 L 195.896 213.977 196.453 213.077 C 196.759 212.582, 194.195 210.120, 190.755 207.607 C 181.240 200.657, 179.916 199.643, 177.881 197.750 C 176.847 196.787, 175.550 196, 175 196 C 174.450 196, 174 195.550, 174 195 C 174 194.450, 173.325 194, 172.500 194 C 171.675 194, 171 193.550, 171 193 C 171 192.450, 170.510 192, 169.910 192 C 169.311 192, 167.623 190.888, 166.160 189.530 C 164.697 188.171, 161.018 185.297, 157.985 183.143 L 152.469 179.226 147.841 181.578 M 41 182.441 L 41 184 39.441 184 C 38.584 184, 38.123 184.390, 38.417 184.866 C 39.137 186.030, 35.541 189.207, 34.586 188.252 C 34.172 187.838, 33.983 188.175, 34.167 189 L 34.500 190.500 33.176 190.225 C 32.447 190.074, 32.098 190.350, 32.400 190.838 C 32.702 191.327, 31.498 193.404, 29.724 195.455 L 26.500 199.184 26.778 229.592 L 27.057 260 35.028 260 L 43 260 43 221.059 L 43 182.118 42 181.500 L 41 180.882 41 182.441" stroke="none" fill="#0b456a" fill-rule="evenodd"/></svg>