<?xml version="1.0" encoding="UTF-8"?>
<!DOCTYPE svg PUBLIC "-//W3C//DTD SVG 1.1//EN" "http://www.w3.org/Graphics/SVG/1.1/DTD/svg11.dtd">
<svg xmlns="http://www.w3.org/2000/svg" version="1.1" width="301px" height="277px" style="shape-rendering:geometricPrecision; text-rendering:geometricPrecision; image-rendering:optimizeQuality; fill-rule:evenodd; clip-rule:evenodd" xmlns:xlink="http://www.w3.org/1999/xlink">
<g><path style="opacity:1" fill="#fefefe" d="M -0.5,-0.5 C 99.8333,-0.5 200.167,-0.5 300.5,-0.5C 300.5,91.8333 300.5,184.167 300.5,276.5C 279.167,276.5 257.833,276.5 236.5,276.5C 234.62,269.439 232.786,262.439 231,255.5C 237.317,250.017 243.483,244.351 249.5,238.5C 255.17,241.586 261.003,244.253 267,246.5C 274.262,237.947 279.929,228.614 284,218.5C 279.072,214.245 274.905,209.412 271.5,204C 274.352,196.757 276.019,189.257 276.5,181.5C 283.817,180.669 291.151,180.002 298.5,179.5C 299.245,169.173 299.412,158.839 299,148.5C 292.29,146.699 285.79,144.366 279.5,141.5C 278.006,134.518 276.006,127.685 273.5,121C 274.101,119.395 275.101,118.062 276.5,117C 281.666,113.327 286.666,109.494 291.5,105.5C 287.024,95.8803 282.024,86.5469 276.5,77.5C 269.574,81.4766 262.24,83.9766 254.5,85C 249.62,78.7417 244.62,72.575 239.5,66.5C 242.555,59.7433 244.555,52.9099 245.5,46C 237.915,41.2913 230.415,36.458 223,31.5C 217.224,35.6412 211.724,40.1412 206.5,45C 205.5,45.6667 204.5,45.6667 203.5,45C 188.047,31.382 173.047,17.2154 158.5,2.5C 105.09,64.0759 52.59,126.409 1,189.5C 0.500023,218.165 0.333356,246.831 0.5,275.5C 79.0018,275.167 157.335,275.501 235.5,276.5C 156.833,276.5 78.1667,276.5 -0.5,276.5C -0.5,184.167 -0.5,91.8333 -0.5,-0.5 Z"/></g>
<g><path style="opacity:1" fill="#084667" d="M 236.5,276.5 C 236.167,276.5 235.833,276.5 235.5,276.5C 157.335,275.501 79.0018,275.167 0.5,275.5C 0.333356,246.831 0.500023,218.165 1,189.5C 52.59,126.409 105.09,64.0759 158.5,2.5C 173.047,17.2154 188.047,31.382 203.5,45C 204.5,45.6667 205.5,45.6667 206.5,45C 211.724,40.1412 217.224,35.6412 223,31.5C 230.415,36.458 237.915,41.2913 245.5,46C 244.555,52.9099 242.555,59.7433 239.5,66.5C 244.62,72.575 249.62,78.7417 254.5,85C 262.24,83.9766 269.574,81.4766 276.5,77.5C 282.024,86.5469 287.024,95.8803 291.5,105.5C 286.666,109.494 281.666,113.327 276.5,117C 275.101,118.062 274.101,119.395 273.5,121C 276.006,127.685 278.006,134.518 279.5,141.5C 285.79,144.366 292.29,146.699 299,148.5C 299.412,158.839 299.245,169.173 298.5,179.5C 291.151,180.002 283.817,180.669 276.5,181.5C 276.019,189.257 274.352,196.757 271.5,204C 274.905,209.412 279.072,214.245 284,218.5C 279.929,228.614 274.262,237.947 267,246.5C 261.003,244.253 255.17,241.586 249.5,238.5C 243.483,244.351 237.317,250.017 231,255.5C 232.786,262.439 234.62,269.439 236.5,276.5 Z"/></g>
<g><path style="opacity:1" fill="#fcfdfd" d="M 154.5,45.5 C 155.552,45.3505 156.552,45.5172 157.5,46C 184.622,74.9563 212.288,103.456 240.5,131.5C 251.863,180.254 235.863,216.754 192.5,241C 191,241.5 189.5,242 188,242.5C 175.984,237.073 163.817,232.073 151.5,227.5C 128.751,232.188 106.084,237.188 83.5,242.5C 82.5488,247.77 82.2154,253.103 82.5,258.5C 77.8215,258.666 73.1548,258.499 68.5,258C 69.3301,219.238 69.8301,180.404 70,141.5C 97.2588,108.739 125.425,76.7386 154.5,45.5 Z"/></g>
<g><path style="opacity:1" fill="#084667" d="M 154.5,63.5 C 174.094,86.9357 193.927,110.269 214,133.5C 215.084,136.88 215.584,140.38 215.5,144C 215.069,154.849 214.402,165.682 213.5,176.5C 194.846,157.679 176.346,138.679 158,119.5C 154.41,118.595 150.91,119.095 147.5,121C 126.969,132.931 105.969,143.764 84.5,153.5C 84.7935,149.563 84.4601,145.73 83.5,142C 107.992,116.463 131.659,90.2962 154.5,63.5 Z"/></g>
<g><path style="opacity:1" fill="#094667" d="M 154.5,132.5 C 173.498,152.664 193.331,171.998 214,190.5C 214.667,196.5 214.667,202.5 214,208.5C 213.751,209.624 213.251,210.624 212.5,211.5C 192.665,195.15 172.165,179.817 151,165.5C 128.928,174.134 106.761,182.468 84.5,190.5C 84.1692,182.804 84.5025,175.138 85.5,167.5C 108.686,156.074 131.686,144.408 154.5,132.5 Z"/></g>
<g><path style="opacity:1" fill="#084667" d="M 151.5,178.5 C 170.24,191.733 188.573,205.566 206.5,220C 201.868,225.799 196.201,230.299 189.5,233.5C 177.207,226.437 164.707,219.77 152,213.5C 129.649,219.071 107.149,224.071 84.5,228.5C 84.169,220.472 84.5023,212.472 85.5,204.5C 107.837,196.394 129.837,187.727 151.5,178.5 Z"/></g>
<g><path style="opacity:1" fill="#fefefe" d="M 40.5,181.5 C 42.491,207.145 43.1576,233.145 42.5,259.5C 37.1667,259.5 31.8333,259.5 26.5,259.5C 26.3334,238.831 26.5,218.164 27,197.5C 31.7337,192.274 36.2337,186.941 40.5,181.5 Z"/></g>
</svg>
